mtllib hill.mtl
v 37.2430 -16.4720 0.0000
v 37.2430 -16.1736 0.0013
v 37.2430 -15.8752 0.0050
v 37.2430 -15.5768 0.0111
v 37.2430 -15.2784 0.0195
v 37.2430 -14.9799 0.0301
v 37.2430 -14.6815 0.0428
v 37.2430 -14.3831 0.0576
v 37.2430 -14.0847 0.0743
v 37.2430 -13.7863 0.0929
v 37.2430 -13.4879 0.1132
v 37.2430 -13.1895 0.1353
v 37.2430 -12.8911 0.1589
v 37.2430 -12.5927 0.1841
v 37.2430 -12.2943 0.2107
v 37.2430 -11.9958 0.2386
v 37.2430 -11.6974 0.2678
v 37.2430 -11.3990 0.2982
v 37.2430 -11.1006 0.3297
v 37.2430 -10.8022 0.3622
v 37.2430 -10.5038 0.3956
v 37.2430 -10.2054 0.4298
v 37.2430 -9.9070 0.4648
v 37.2430 -9.6086 0.5005
v 37.2430 -9.3102 0.5367
v 37.2430 -9.0117 0.5734
v 37.2430 -8.7133 0.6105
v 37.2430 -8.4149 0.6480
v 37.2430 -8.1165 0.6856
v 37.2430 -7.8181 0.7234
v 37.2430 -7.5197 0.7613
v 37.2430 -7.2213 0.7991
v 37.2430 -6.9229 0.8369
v 37.2430 -6.6245 0.8744
v 37.2430 -6.3261 0.9117
v 37.2430 -6.0276 0.9486
v 37.2430 -5.7292 0.9850
v 37.2430 -5.4308 1.0209
v 37.2430 -5.1324 1.0561
v 37.2430 -4.8340 1.0907
v 37.2430 -4.5356 1.1244
v 37.2430 -4.2372 1.1573
v 37.2430 -3.9388 1.1892
v 37.2430 -3.6404 1.2200
v 37.2430 -3.3420 1.2497
v 37.2430 -3.0435 1.2782
v 37.2430 -2.7451 1.3054
v 37.2430 -2.4467 1.3311
v 37.2430 -2.1483 1.3554
v 37.2430 -1.8499 1.3781
v 37.2430 -1.5515 1.3991
v 37.2430 -1.2531 1.4184
v 37.2430 -0.9547 1.4359
v 37.2430 -0.6563 1.4515
v 37.2430 -0.3579 1.4650
v 37.2430 -0.0594 1.4765
v 37.2430 0.2390 1.4858
v 37.2430 0.5374 1.4928
v 37.2430 0.8358 1.4975
v 37.2430 1.1342 1.4998
v 37.2430 1.4326 1.4997
v 37.2430 1.7310 1.4982
v 37.2430 2.0294 1.4953
v 37.2430 2.3278 1.4911
v 37.2430 2.6262 1.4856
v 37.2430 2.9247 1.4788
v 37.2430 3.2231 1.4708
v 37.2430 3.5215 1.4616
v 37.2430 3.8199 1.4513
v 37.2430 4.1183 1.4398
v 37.2430 4.4167 1.4273
v 37.2430 4.7151 1.4138
v 37.2430 5.0135 1.3992
v 37.2430 5.3119 1.3836
v 37.2430 5.6103 1.3672
v 37.2430 5.9088 1.3498
v 37.2430 6.2072 1.3315
v 37.2430 6.5056 1.3125
v 37.2430 6.8040 1.2926
v 37.2430 7.1024 1.2720
v 37.2430 7.4008 1.2507
v 37.2430 7.6992 1.2286
v 37.2430 7.9976 1.2060
v 37.2430 8.2960 1.1827
v 37.2430 8.5944 1.1588
v 37.2430 8.8929 1.1344
v 37.2430 9.1913 1.1095
v 37.2430 9.4897 1.0841
v 37.2430 9.7881 1.0583
v 37.2430 10.0865 1.0321
v 37.2430 10.3849 1.0055
v 37.2430 10.6833 0.9786
v 37.2430 10.9817 0.9513
v 37.2430 11.2801 0.9239
v 37.2430 11.5785 0.8962
v 37.2430 11.8770 0.8683
v 37.2430 12.1754 0.8403
v 37.2430 12.4738 0.8122
v 37.2430 12.7722 0.7840
v 37.2430 13.0706 0.7557
v 37.2430 13.3690 0.7274
v 37.2430 13.6674 0.6992
v 37.2430 13.9658 0.6710
v 37.2430 14.2642 0.6430
v 37.2430 14.5626 0.6150
v 37.2430 14.8611 0.5873
v 37.2430 15.1595 0.5597
v 37.2430 15.4579 0.5324
v 37.2430 15.7563 0.5053
v 37.2430 16.0547 0.4786
v 37.2430 16.3531 0.4522
v 37.2430 16.6515 0.4263
v 37.2430 16.9499 0.4007
v 37.2430 17.2483 0.3756
v 37.2430 17.5467 0.3510
v 37.2430 17.8452 0.3269
v 37.2430 18.1436 0.3034
v 37.2430 18.4420 0.2804
v 37.2430 18.7404 0.2581
v 37.2430 19.0388 0.2365
v 37.2430 19.3372 0.2156
v 37.2430 19.6356 0.1954
v 37.2430 19.9340 0.1760
v 37.2430 20.2324 0.1575
v 37.2430 20.5308 0.1397
v 37.2430 20.8293 0.1229
v 37.2430 21.1277 0.1070
v 37.2430 21.4261 0.0920
v 37.2430 21.7245 0.0780
v 37.2430 22.0229 0.0651
v 37.2430 22.3213 0.0532
v 37.2430 22.6197 0.0424
v 37.2430 22.9181 0.0328
v 37.2430 23.2165 0.0243
v 37.2430 23.5149 0.0170
v 37.2430 23.8134 0.0110
v 37.2430 24.1118 0.0062
v 37.2430 24.4102 0.0028
v 37.2430 24.7086 0.0007
v 37.2430 25.0070 0.0000
v 46.0950 -16.4720 0.0000
v 46.0950 -16.1736 0.0013
v 46.0950 -15.8752 0.0050
v 46.0950 -15.5768 0.0111
v 46.0950 -15.2784 0.0195
v 46.0950 -14.9799 0.0301
v 46.0950 -14.6815 0.0428
v 46.0950 -14.3831 0.0576
v 46.0950 -14.0847 0.0743
v 46.0950 -13.7863 0.0929
v 46.0950 -13.4879 0.1132
v 46.0950 -13.1895 0.1353
v 46.0950 -12.8911 0.1589
v 46.0950 -12.5927 0.1841
v 46.0950 -12.2943 0.2107
v 46.0950 -11.9958 0.2386
v 46.0950 -11.6974 0.2678
v 46.0950 -11.3990 0.2982
v 46.0950 -11.1006 0.3297
v 46.0950 -10.8022 0.3622
v 46.0950 -10.5038 0.3956
v 46.0950 -10.2054 0.4298
v 46.0950 -9.9070 0.4648
v 46.0950 -9.6086 0.5005
v 46.0950 -9.3102 0.5367
v 46.0950 -9.0117 0.5734
v 46.0950 -8.7133 0.6105
v 46.0950 -8.4149 0.6480
v 46.0950 -8.1165 0.6856
v 46.0950 -7.8181 0.7234
v 46.0950 -7.5197 0.7613
v 46.0950 -7.2213 0.7991
v 46.0950 -6.9229 0.8369
v 46.0950 -6.6245 0.8744
v 46.0950 -6.3261 0.9117
v 46.0950 -6.0276 0.9486
v 46.0950 -5.7292 0.9850
v 46.0950 -5.4308 1.0209
v 46.0950 -5.1324 1.0561
v 46.0950 -4.8340 1.0907
v 46.0950 -4.5356 1.1244
v 46.0950 -4.2372 1.1573
v 46.0950 -3.9388 1.1892
v 46.0950 -3.6404 1.2200
v 46.0950 -3.3420 1.2497
v 46.0950 -3.0435 1.2782
v 46.0950 -2.7451 1.3054
v 46.0950 -2.4467 1.3311
v 46.0950 -2.1483 1.3554
v 46.0950 -1.8499 1.3781
v 46.0950 -1.5515 1.3991
v 46.0950 -1.2531 1.4184
v 46.0950 -0.9547 1.4359
v 46.0950 -0.6563 1.4515
v 46.0950 -0.3579 1.4650
v 46.0950 -0.0594 1.4765
v 46.0950 0.2390 1.4858
v 46.0950 0.5374 1.4928
v 46.0950 0.8358 1.4975
v 46.0950 1.1342 1.4998
v 46.0950 1.4326 1.4997
v 46.0950 1.7310 1.4982
v 46.0950 2.0294 1.4953
v 46.0950 2.3278 1.4911
v 46.0950 2.6262 1.4856
v 46.0950 2.9247 1.4788
v 46.0950 3.2231 1.4708
v 46.0950 3.5215 1.4616
v 46.0950 3.8199 1.4513
v 46.0950 4.1183 1.4398
v 46.0950 4.4167 1.4273
v 46.0950 4.7151 1.4138
v 46.0950 5.0135 1.3992
v 46.0950 5.3119 1.3836
v 46.0950 5.6103 1.3672
v 46.0950 5.9088 1.3498
v 46.0950 6.2072 1.3315
v 46.0950 6.5056 1.3125
v 46.0950 6.8040 1.2926
v 46.0950 7.1024 1.2720
v 46.0950 7.4008 1.2507
v 46.0950 7.6992 1.2286
v 46.0950 7.9976 1.2060
v 46.0950 8.2960 1.1827
v 46.0950 8.5944 1.1588
v 46.0950 8.8929 1.1344
v 46.0950 9.1913 1.1095
v 46.0950 9.4897 1.0841
v 46.0950 9.7881 1.0583
v 46.0950 10.0865 1.0321
v 46.0950 10.3849 1.0055
v 46.0950 10.6833 0.9786
v 46.0950 10.9817 0.9513
v 46.0950 11.2801 0.9239
v 46.0950 11.5785 0.8962
v 46.0950 11.8770 0.8683
v 46.0950 12.1754 0.8403
v 46.0950 12.4738 0.8122
v 46.0950 12.7722 0.7840
v 46.0950 13.0706 0.7557
v 46.0950 13.3690 0.7274
v 46.0950 13.6674 0.6992
v 46.0950 13.9658 0.6710
v 46.0950 14.2642 0.6430
v 46.0950 14.5626 0.6150
v 46.0950 14.8611 0.5873
v 46.0950 15.1595 0.5597
v 46.0950 15.4579 0.5324
v 46.0950 15.7563 0.5053
v 46.0950 16.0547 0.4786
v 46.0950 16.3531 0.4522
v 46.0950 16.6515 0.4263
v 46.0950 16.9499 0.4007
v 46.0950 17.2483 0.3756
v 46.0950 17.5467 0.3510
v 46.0950 17.8452 0.3269
v 46.0950 18.1436 0.3034
v 46.0950 18.4420 0.2804
v 46.0950 18.7404 0.2581
v 46.0950 19.0388 0.2365
v 46.0950 19.3372 0.2156
v 46.0950 19.6356 0.1954
v 46.0950 19.9340 0.1760
v 46.0950 20.2324 0.1575
v 46.0950 20.5308 0.1397
v 46.0950 20.8293 0.1229
v 46.0950 21.1277 0.1070
v 46.0950 21.4261 0.0920
v 46.0950 21.7245 0.0780
v 46.0950 22.0229 0.0651
v 46.0950 22.3213 0.0532
v 46.0950 22.6197 0.0424
v 46.0950 22.9181 0.0328
v 46.0950 23.2165 0.0243
v 46.0950 23.5149 0.0170
v 46.0950 23.8134 0.0110
v 46.0950 24.1118 0.0062
v 46.0950 24.4102 0.0028
v 46.0950 24.7086 0.0007
v 46.0950 25.0070 0.0000
v 37.2430 -16.4720 0.0000
v 37.2430 -16.1736 0.0000
v 37.2430 -15.8752 0.0000
v 37.2430 -15.5768 0.0000
v 37.2430 -15.2784 0.0000
v 37.2430 -14.9799 0.0000
v 37.2430 -14.6815 0.0000
v 37.2430 -14.3831 0.0000
v 37.2430 -14.0847 0.0000
v 37.2430 -13.7863 0.0000
v 37.2430 -13.4879 0.0000
v 37.2430 -13.1895 0.0000
v 37.2430 -12.8911 0.0000
v 37.2430 -12.5927 0.0000
v 37.2430 -12.2943 0.0000
v 37.2430 -11.9958 0.0000
v 37.2430 -11.6974 0.0000
v 37.2430 -11.3990 0.0000
v 37.2430 -11.1006 0.0000
v 37.2430 -10.8022 0.0000
v 37.2430 -10.5038 0.0000
v 37.2430 -10.2054 0.0000
v 37.2430 -9.9070 0.0000
v 37.2430 -9.6086 0.0000
v 37.2430 -9.3102 0.0000
v 37.2430 -9.0117 0.0000
v 37.2430 -8.7133 0.0000
v 37.2430 -8.4149 0.0000
v 37.2430 -8.1165 0.0000
v 37.2430 -7.8181 0.0000
v 37.2430 -7.5197 0.0000
v 37.2430 -7.2213 0.0000
v 37.2430 -6.9229 0.0000
v 37.2430 -6.6245 0.0000
v 37.2430 -6.3261 0.0000
v 37.2430 -6.0276 0.0000
v 37.2430 -5.7292 0.0000
v 37.2430 -5.4308 0.0000
v 37.2430 -5.1324 0.0000
v 37.2430 -4.8340 0.0000
v 37.2430 -4.5356 0.0000
v 37.2430 -4.2372 0.0000
v 37.2430 -3.9388 0.0000
v 37.2430 -3.6404 0.0000
v 37.2430 -3.3420 0.0000
v 37.2430 -3.0435 0.0000
v 37.2430 -2.7451 0.0000
v 37.2430 -2.4467 0.0000
v 37.2430 -2.1483 0.0000
v 37.2430 -1.8499 0.0000
v 37.2430 -1.5515 0.0000
v 37.2430 -1.2531 0.0000
v 37.2430 -0.9547 0.0000
v 37.2430 -0.6563 0.0000
v 37.2430 -0.3579 0.0000
v 37.2430 -0.0594 0.0000
v 37.2430 0.2390 0.0000
v 37.2430 0.5374 0.0000
v 37.2430 0.8358 0.0000
v 37.2430 1.1342 0.0000
v 37.2430 1.4326 0.0000
v 37.2430 1.7310 0.0000
v 37.2430 2.0294 0.0000
v 37.2430 2.3278 0.0000
v 37.2430 2.6262 0.0000
v 37.2430 2.9247 0.0000
v 37.2430 3.2231 0.0000
v 37.2430 3.5215 0.0000
v 37.2430 3.8199 0.0000
v 37.2430 4.1183 0.0000
v 37.2430 4.4167 0.0000
v 37.2430 4.7151 0.0000
v 37.2430 5.0135 0.0000
v 37.2430 5.3119 0.0000
v 37.2430 5.6103 0.0000
v 37.2430 5.9088 0.0000
v 37.2430 6.2072 0.0000
v 37.2430 6.5056 0.0000
v 37.2430 6.8040 0.0000
v 37.2430 7.1024 0.0000
v 37.2430 7.4008 0.0000
v 37.2430 7.6992 0.0000
v 37.2430 7.9976 0.0000
v 37.2430 8.2960 0.0000
v 37.2430 8.5944 0.0000
v 37.2430 8.8929 0.0000
v 37.2430 9.1913 0.0000
v 37.2430 9.4897 0.0000
v 37.2430 9.7881 0.0000
v 37.2430 10.0865 0.0000
v 37.2430 10.3849 0.0000
v 37.2430 10.6833 0.0000
v 37.2430 10.9817 0.0000
v 37.2430 11.2801 0.0000
v 37.2430 11.5785 0.0000
v 37.2430 11.8770 0.0000
v 37.2430 12.1754 0.0000
v 37.2430 12.4738 0.0000
v 37.2430 12.7722 0.0000
v 37.2430 13.0706 0.0000
v 37.2430 13.3690 0.0000
v 37.2430 13.6674 0.0000
v 37.2430 13.9658 0.0000
v 37.2430 14.2642 0.0000
v 37.2430 14.5626 0.0000
v 37.2430 14.8611 0.0000
v 37.2430 15.1595 0.0000
v 37.2430 15.4579 0.0000
v 37.2430 15.7563 0.0000
v 37.2430 16.0547 0.0000
v 37.2430 16.3531 0.0000
v 37.2430 16.6515 0.0000
v 37.2430 16.9499 0.0000
v 37.2430 17.2483 0.0000
v 37.2430 17.5467 0.0000
v 37.2430 17.8452 0.0000
v 37.2430 18.1436 0.0000
v 37.2430 18.4420 0.0000
v 37.2430 18.7404 0.0000
v 37.2430 19.0388 0.0000
v 37.2430 19.3372 0.0000
v 37.2430 19.6356 0.0000
v 37.2430 19.9340 0.0000
v 37.2430 20.2324 0.0000
v 37.2430 20.5308 0.0000
v 37.2430 20.8293 0.0000
v 37.2430 21.1277 0.0000
v 37.2430 21.4261 0.0000
v 37.2430 21.7245 0.0000
v 37.2430 22.0229 0.0000
v 37.2430 22.3213 0.0000
v 37.2430 22.6197 0.0000
v 37.2430 22.9181 0.0000
v 37.2430 23.2165 0.0000
v 37.2430 23.5149 0.0000
v 37.2430 23.8134 0.0000
v 37.2430 24.1118 0.0000
v 37.2430 24.4102 0.0000
v 37.2430 24.7086 0.0000
v 37.2430 25.0070 0.0000
v 46.0950 -16.4720 0.0000
v 46.0950 -16.1736 0.0000
v 46.0950 -15.8752 0.0000
v 46.0950 -15.5768 0.0000
v 46.0950 -15.2784 0.0000
v 46.0950 -14.9799 0.0000
v 46.0950 -14.6815 0.0000
v 46.0950 -14.3831 0.0000
v 46.0950 -14.0847 0.0000
v 46.0950 -13.7863 0.0000
v 46.0950 -13.4879 0.0000
v 46.0950 -13.1895 0.0000
v 46.0950 -12.8911 0.0000
v 46.0950 -12.5927 0.0000
v 46.0950 -12.2943 0.0000
v 46.0950 -11.9958 0.0000
v 46.0950 -11.6974 0.0000
v 46.0950 -11.3990 0.0000
v 46.0950 -11.1006 0.0000
v 46.0950 -10.8022 0.0000
v 46.0950 -10.5038 0.0000
v 46.0950 -10.2054 0.0000
v 46.0950 -9.9070 0.0000
v 46.0950 -9.6086 0.0000
v 46.0950 -9.3102 0.0000
v 46.0950 -9.0117 0.0000
v 46.0950 -8.7133 0.0000
v 46.0950 -8.4149 0.0000
v 46.0950 -8.1165 0.0000
v 46.0950 -7.8181 0.0000
v 46.0950 -7.5197 0.0000
v 46.0950 -7.2213 0.0000
v 46.0950 -6.9229 0.0000
v 46.0950 -6.6245 0.0000
v 46.0950 -6.3261 0.0000
v 46.0950 -6.0276 0.0000
v 46.0950 -5.7292 0.0000
v 46.0950 -5.4308 0.0000
v 46.0950 -5.1324 0.0000
v 46.0950 -4.8340 0.0000
v 46.0950 -4.5356 0.0000
v 46.0950 -4.2372 0.0000
v 46.0950 -3.9388 0.0000
v 46.0950 -3.6404 0.0000
v 46.0950 -3.3420 0.0000
v 46.0950 -3.0435 0.0000
v 46.0950 -2.7451 0.0000
v 46.0950 -2.4467 0.0000
v 46.0950 -2.1483 0.0000
v 46.0950 -1.8499 0.0000
v 46.0950 -1.5515 0.0000
v 46.0950 -1.2531 0.0000
v 46.0950 -0.9547 0.0000
v 46.0950 -0.6563 0.0000
v 46.0950 -0.3579 0.0000
v 46.0950 -0.0594 0.0000
v 46.0950 0.2390 0.0000
v 46.0950 0.5374 0.0000
v 46.0950 0.8358 0.0000
v 46.0950 1.1342 0.0000
v 46.0950 1.4326 0.0000
v 46.0950 1.7310 0.0000
v 46.0950 2.0294 0.0000
v 46.0950 2.3278 0.0000
v 46.0950 2.6262 0.0000
v 46.0950 2.9247 0.0000
v 46.0950 3.2231 0.0000
v 46.0950 3.5215 0.0000
v 46.0950 3.8199 0.0000
v 46.0950 4.1183 0.0000
v 46.0950 4.4167 0.0000
v 46.0950 4.7151 0.0000
v 46.0950 5.0135 0.0000
v 46.0950 5.3119 0.0000
v 46.0950 5.6103 0.0000
v 46.0950 5.9088 0.0000
v 46.0950 6.2072 0.0000
v 46.0950 6.5056 0.0000
v 46.0950 6.8040 0.0000
v 46.0950 7.1024 0.0000
v 46.0950 7.4008 0.0000
v 46.0950 7.6992 0.0000
v 46.0950 7.9976 0.0000
v 46.0950 8.2960 0.0000
v 46.0950 8.5944 0.0000
v 46.0950 8.8929 0.0000
v 46.0950 9.1913 0.0000
v 46.0950 9.4897 0.0000
v 46.0950 9.7881 0.0000
v 46.0950 10.0865 0.0000
v 46.0950 10.3849 0.0000
v 46.0950 10.6833 0.0000
v 46.0950 10.9817 0.0000
v 46.0950 11.2801 0.0000
v 46.0950 11.5785 0.0000
v 46.0950 11.8770 0.0000
v 46.0950 12.1754 0.0000
v 46.0950 12.4738 0.0000
v 46.0950 12.7722 0.0000
v 46.0950 13.0706 0.0000
v 46.0950 13.3690 0.0000
v 46.0950 13.6674 0.0000
v 46.0950 13.9658 0.0000
v 46.0950 14.2642 0.0000
v 46.0950 14.5626 0.0000
v 46.0950 14.8611 0.0000
v 46.0950 15.1595 0.0000
v 46.0950 15.4579 0.0000
v 46.0950 15.7563 0.0000
v 46.0950 16.0547 0.0000
v 46.0950 16.3531 0.0000
v 46.0950 16.6515 0.0000
v 46.0950 16.9499 0.0000
v 46.0950 17.2483 0.0000
v 46.0950 17.5467 0.0000
v 46.0950 17.8452 0.0000
v 46.0950 18.1436 0.0000
v 46.0950 18.4420 0.0000
v 46.0950 18.7404 0.0000
v 46.0950 19.0388 0.0000
v 46.0950 19.3372 0.0000
v 46.0950 19.6356 0.0000
v 46.0950 19.9340 0.0000
v 46.0950 20.2324 0.0000
v 46.0950 20.5308 0.0000
v 46.0950 20.8293 0.0000
v 46.0950 21.1277 0.0000
v 46.0950 21.4261 0.0000
v 46.0950 21.7245 0.0000
v 46.0950 22.0229 0.0000
v 46.0950 22.3213 0.0000
v 46.0950 22.6197 0.0000
v 46.0950 22.9181 0.0000
v 46.0950 23.2165 0.0000
v 46.0950 23.5149 0.0000
v 46.0950 23.8134 0.0000
v 46.0950 24.1118 0.0000
v 46.0950 24.4102 0.0000
v 46.0950 24.7086 0.0000
v 46.0950 25.0070 0.0000
vt 0.863346 0.365535
vt 0.863346 0.367971
vt 0.863346 0.370407
vt 0.863346 0.372843
vt 0.863346 0.375279
vt 0.863346 0.377715
vt 0.863346 0.380151
vt 0.863346 0.382587
vt 0.863346 0.385023
vt 0.863346 0.387459
vt 0.863346 0.389895
vt 0.863346 0.392331
vt 0.863346 0.394767
vt 0.863346 0.397203
vt 0.863346 0.399639
vt 0.863346 0.402075
vt 0.863346 0.404511
vt 0.863346 0.406947
vt 0.863346 0.409383
vt 0.863346 0.411819
vt 0.863346 0.414255
vt 0.863346 0.416691
vt 0.863346 0.419127
vt 0.863346 0.421563
vt 0.863346 0.423999
vt 0.863346 0.426435
vt 0.863346 0.428871
vt 0.863346 0.431307
vt 0.863346 0.433743
vt 0.863346 0.436179
vt 0.863346 0.438615
vt 0.863346 0.441051
vt 0.863346 0.443487
vt 0.863346 0.445923
vt 0.863346 0.448359
vt 0.863346 0.450795
vt 0.863346 0.453231
vt 0.863346 0.455667
vt 0.863346 0.458103
vt 0.863346 0.460539
vt 0.863346 0.462975
vt 0.863346 0.465411
vt 0.863346 0.467847
vt 0.863346 0.470283
vt 0.863346 0.472719
vt 0.863346 0.475155
vt 0.863346 0.477591
vt 0.863346 0.480027
vt 0.863346 0.482463
vt 0.863346 0.484899
vt 0.863346 0.487335
vt 0.863346 0.489771
vt 0.863346 0.492207
vt 0.863346 0.494643
vt 0.863346 0.497079
vt 0.863346 0.499515
vt 0.863346 0.501951
vt 0.863346 0.504387
vt 0.863346 0.506823
vt 0.863346 0.509259
vt 0.863346 0.511695
vt 0.863346 0.514131
vt 0.863346 0.516567
vt 0.863346 0.519003
vt 0.863346 0.521439
vt 0.863346 0.523875
vt 0.863346 0.526311
vt 0.863346 0.528747
vt 0.863346 0.531183
vt 0.863346 0.533619
vt 0.863346 0.536055
vt 0.863346 0.538491
vt 0.863346 0.540927
vt 0.863346 0.543363
vt 0.863346 0.545799
vt 0.863346 0.548235
vt 0.863346 0.550671
vt 0.863346 0.553107
vt 0.863346 0.555543
vt 0.863346 0.557979
vt 0.863346 0.560415
vt 0.863346 0.562851
vt 0.863346 0.565287
vt 0.863346 0.567723
vt 0.863346 0.570159
vt 0.863346 0.572595
vt 0.863346 0.575031
vt 0.863346 0.577467
vt 0.863346 0.579903
vt 0.863346 0.582339
vt 0.863346 0.584775
vt 0.863346 0.587211
vt 0.863346 0.589647
vt 0.863346 0.592083
vt 0.863346 0.594519
vt 0.863346 0.596955
vt 0.863346 0.599391
vt 0.863346 0.601827
vt 0.863346 0.604263
vt 0.863346 0.606699
vt 0.863346 0.609135
vt 0.863346 0.611571
vt 0.863346 0.614007
vt 0.863346 0.616443
vt 0.863346 0.618879
vt 0.863346 0.621315
vt 0.863346 0.623751
vt 0.863346 0.626187
vt 0.863346 0.628623
vt 0.863346 0.631059
vt 0.863346 0.633495
vt 0.863346 0.635931
vt 0.863346 0.638367
vt 0.863346 0.640803
vt 0.863346 0.643239
vt 0.863346 0.645675
vt 0.863346 0.648111
vt 0.863346 0.650547
vt 0.863346 0.652983
vt 0.863346 0.655419
vt 0.863346 0.657855
vt 0.863346 0.660291
vt 0.863346 0.662727
vt 0.863346 0.665163
vt 0.863346 0.667599
vt 0.863346 0.670035
vt 0.863346 0.672471
vt 0.863346 0.674907
vt 0.863346 0.677343
vt 0.863346 0.679779
vt 0.863346 0.682215
vt 0.863346 0.684651
vt 0.863346 0.687087
vt 0.863346 0.689523
vt 0.863346 0.691959
vt 0.863346 0.694395
vt 0.863346 0.696831
vt 0.863346 0.699267
vt 0.863346 0.701703
vt 0.863346 0.704139
vt 0.949707 0.365535
vt 0.949707 0.367971
vt 0.949707 0.370407
vt 0.949707 0.372843
vt 0.949707 0.375279
vt 0.949707 0.377715
vt 0.949707 0.380151
vt 0.949707 0.382587
vt 0.949707 0.385023
vt 0.949707 0.387459
vt 0.949707 0.389895
vt 0.949707 0.392331
vt 0.949707 0.394767
vt 0.949707 0.397203
vt 0.949707 0.399639
vt 0.949707 0.402075
vt 0.949707 0.404511
vt 0.949707 0.406947
vt 0.949707 0.409383
vt 0.949707 0.411819
vt 0.949707 0.414255
vt 0.949707 0.416691
vt 0.949707 0.419127
vt 0.949707 0.421563
vt 0.949707 0.423999
vt 0.949707 0.426435
vt 0.949707 0.428871
vt 0.949707 0.431307
vt 0.949707 0.433743
vt 0.949707 0.436179
vt 0.949707 0.438615
vt 0.949707 0.441051
vt 0.949707 0.443487
vt 0.949707 0.445923
vt 0.949707 0.448359
vt 0.949707 0.450795
vt 0.949707 0.453231
vt 0.949707 0.455667
vt 0.949707 0.458103
vt 0.949707 0.460539
vt 0.949707 0.462975
vt 0.949707 0.465411
vt 0.949707 0.467847
vt 0.949707 0.470283
vt 0.949707 0.472719
vt 0.949707 0.475155
vt 0.949707 0.477591
vt 0.949707 0.480027
vt 0.949707 0.482463
vt 0.949707 0.484899
vt 0.949707 0.487335
vt 0.949707 0.489771
vt 0.949707 0.492207
vt 0.949707 0.494643
vt 0.949707 0.497079
vt 0.949707 0.499515
vt 0.949707 0.501951
vt 0.949707 0.504387
vt 0.949707 0.506823
vt 0.949707 0.509259
vt 0.949707 0.511695
vt 0.949707 0.514131
vt 0.949707 0.516567
vt 0.949707 0.519003
vt 0.949707 0.521439
vt 0.949707 0.523875
vt 0.949707 0.526311
vt 0.949707 0.528747
vt 0.949707 0.531183
vt 0.949707 0.533619
vt 0.949707 0.536055
vt 0.949707 0.538491
vt 0.949707 0.540927
vt 0.949707 0.543363
vt 0.949707 0.545799
vt 0.949707 0.548235
vt 0.949707 0.550671
vt 0.949707 0.553107
vt 0.949707 0.555543
vt 0.949707 0.557979
vt 0.949707 0.560415
vt 0.949707 0.562851
vt 0.949707 0.565287
vt 0.949707 0.567723
vt 0.949707 0.570159
vt 0.949707 0.572595
vt 0.949707 0.575031
vt 0.949707 0.577467
vt 0.949707 0.579903
vt 0.949707 0.582339
vt 0.949707 0.584775
vt 0.949707 0.587211
vt 0.949707 0.589647
vt 0.949707 0.592083
vt 0.949707 0.594519
vt 0.949707 0.596955
vt 0.949707 0.599391
vt 0.949707 0.601827
vt 0.949707 0.604263
vt 0.949707 0.606699
vt 0.949707 0.609135
vt 0.949707 0.611571
vt 0.949707 0.614007
vt 0.949707 0.616443
vt 0.949707 0.618879
vt 0.949707 0.621315
vt 0.949707 0.623751
vt 0.949707 0.626187
vt 0.949707 0.628623
vt 0.949707 0.631059
vt 0.949707 0.633495
vt 0.949707 0.635931
vt 0.949707 0.638367
vt 0.949707 0.640803
vt 0.949707 0.643239
vt 0.949707 0.645675
vt 0.949707 0.648111
vt 0.949707 0.650547
vt 0.949707 0.652983
vt 0.949707 0.655419
vt 0.949707 0.657855
vt 0.949707 0.660291
vt 0.949707 0.662727
vt 0.949707 0.665163
vt 0.949707 0.667599
vt 0.949707 0.670035
vt 0.949707 0.672471
vt 0.949707 0.674907
vt 0.949707 0.677343
vt 0.949707 0.679779
vt 0.949707 0.682215
vt 0.949707 0.684651
vt 0.949707 0.687087
vt 0.949707 0.689523
vt 0.949707 0.691959
vt 0.949707 0.694395
vt 0.949707 0.696831
vt 0.949707 0.699267
vt 0.949707 0.701703
vt 0.949707 0.704139
vn 0.0000 0.0000 1.0000
vn -1.0000 0.0000 0.0000
vn 1.0000 0.0000 0.0000
usemtl course
f 1/1/1 141/141/1 142/142/1
f 1/1/1 142/142/1 2/2/1
f 2/2/1 142/142/1 143/143/1
f 2/2/1 143/143/1 3/3/1
f 3/3/1 143/143/1 144/144/1
f 3/3/1 144/144/1 4/4/1
f 4/4/1 144/144/1 145/145/1
f 4/4/1 145/145/1 5/5/1
f 5/5/1 145/145/1 146/146/1
f 5/5/1 146/146/1 6/6/1
f 6/6/1 146/146/1 147/147/1
f 6/6/1 147/147/1 7/7/1
f 7/7/1 147/147/1 148/148/1
f 7/7/1 148/148/1 8/8/1
f 8/8/1 148/148/1 149/149/1
f 8/8/1 149/149/1 9/9/1
f 9/9/1 149/149/1 150/150/1
f 9/9/1 150/150/1 10/10/1
f 10/10/1 150/150/1 151/151/1
f 10/10/1 151/151/1 11/11/1
f 11/11/1 151/151/1 152/152/1
f 11/11/1 152/152/1 12/12/1
f 12/12/1 152/152/1 153/153/1
f 12/12/1 153/153/1 13/13/1
f 13/13/1 153/153/1 154/154/1
f 13/13/1 154/154/1 14/14/1
f 14/14/1 154/154/1 155/155/1
f 14/14/1 155/155/1 15/15/1
f 15/15/1 155/155/1 156/156/1
f 15/15/1 156/156/1 16/16/1
f 16/16/1 156/156/1 157/157/1
f 16/16/1 157/157/1 17/17/1
f 17/17/1 157/157/1 158/158/1
f 17/17/1 158/158/1 18/18/1
f 18/18/1 158/158/1 159/159/1
f 18/18/1 159/159/1 19/19/1
f 19/19/1 159/159/1 160/160/1
f 19/19/1 160/160/1 20/20/1
f 20/20/1 160/160/1 161/161/1
f 20/20/1 161/161/1 21/21/1
f 21/21/1 161/161/1 162/162/1
f 21/21/1 162/162/1 22/22/1
f 22/22/1 162/162/1 163/163/1
f 22/22/1 163/163/1 23/23/1
f 23/23/1 163/163/1 164/164/1
f 23/23/1 164/164/1 24/24/1
f 24/24/1 164/164/1 165/165/1
f 24/24/1 165/165/1 25/25/1
f 25/25/1 165/165/1 166/166/1
f 25/25/1 166/166/1 26/26/1
f 26/26/1 166/166/1 167/167/1
f 26/26/1 167/167/1 27/27/1
f 27/27/1 167/167/1 168/168/1
f 27/27/1 168/168/1 28/28/1
f 28/28/1 168/168/1 169/169/1
f 28/28/1 169/169/1 29/29/1
f 29/29/1 169/169/1 170/170/1
f 29/29/1 170/170/1 30/30/1
f 30/30/1 170/170/1 171/171/1
f 30/30/1 171/171/1 31/31/1
f 31/31/1 171/171/1 172/172/1
f 31/31/1 172/172/1 32/32/1
f 32/32/1 172/172/1 173/173/1
f 32/32/1 173/173/1 33/33/1
f 33/33/1 173/173/1 174/174/1
f 33/33/1 174/174/1 34/34/1
f 34/34/1 174/174/1 175/175/1
f 34/34/1 175/175/1 35/35/1
f 35/35/1 175/175/1 176/176/1
f 35/35/1 176/176/1 36/36/1
f 36/36/1 176/176/1 177/177/1
f 36/36/1 177/177/1 37/37/1
f 37/37/1 177/177/1 178/178/1
f 37/37/1 178/178/1 38/38/1
f 38/38/1 178/178/1 179/179/1
f 38/38/1 179/179/1 39/39/1
f 39/39/1 179/179/1 180/180/1
f 39/39/1 180/180/1 40/40/1
f 40/40/1 180/180/1 181/181/1
f 40/40/1 181/181/1 41/41/1
f 41/41/1 181/181/1 182/182/1
f 41/41/1 182/182/1 42/42/1
f 42/42/1 182/182/1 183/183/1
f 42/42/1 183/183/1 43/43/1
f 43/43/1 183/183/1 184/184/1
f 43/43/1 184/184/1 44/44/1
f 44/44/1 184/184/1 185/185/1
f 44/44/1 185/185/1 45/45/1
f 45/45/1 185/185/1 186/186/1
f 45/45/1 186/186/1 46/46/1
f 46/46/1 186/186/1 187/187/1
f 46/46/1 187/187/1 47/47/1
f 47/47/1 187/187/1 188/188/1
f 47/47/1 188/188/1 48/48/1
f 48/48/1 188/188/1 189/189/1
f 48/48/1 189/189/1 49/49/1
f 49/49/1 189/189/1 190/190/1
f 49/49/1 190/190/1 50/50/1
f 50/50/1 190/190/1 191/191/1
f 50/50/1 191/191/1 51/51/1
f 51/51/1 191/191/1 192/192/1
f 51/51/1 192/192/1 52/52/1
f 52/52/1 192/192/1 193/193/1
f 52/52/1 193/193/1 53/53/1
f 53/53/1 193/193/1 194/194/1
f 53/53/1 194/194/1 54/54/1
f 54/54/1 194/194/1 195/195/1
f 54/54/1 195/195/1 55/55/1
f 55/55/1 195/195/1 196/196/1
f 55/55/1 196/196/1 56/56/1
f 56/56/1 196/196/1 197/197/1
f 56/56/1 197/197/1 57/57/1
f 57/57/1 197/197/1 198/198/1
f 57/57/1 198/198/1 58/58/1
f 58/58/1 198/198/1 199/199/1
f 58/58/1 199/199/1 59/59/1
f 59/59/1 199/199/1 200/200/1
f 59/59/1 200/200/1 60/60/1
f 60/60/1 200/200/1 201/201/1
f 60/60/1 201/201/1 61/61/1
f 61/61/1 201/201/1 202/202/1
f 61/61/1 202/202/1 62/62/1
f 62/62/1 202/202/1 203/203/1
f 62/62/1 203/203/1 63/63/1
f 63/63/1 203/203/1 204/204/1
f 63/63/1 204/204/1 64/64/1
f 64/64/1 204/204/1 205/205/1
f 64/64/1 205/205/1 65/65/1
f 65/65/1 205/205/1 206/206/1
f 65/65/1 206/206/1 66/66/1
f 66/66/1 206/206/1 207/207/1
f 66/66/1 207/207/1 67/67/1
f 67/67/1 207/207/1 208/208/1
f 67/67/1 208/208/1 68/68/1
f 68/68/1 208/208/1 209/209/1
f 68/68/1 209/209/1 69/69/1
f 69/69/1 209/209/1 210/210/1
f 69/69/1 210/210/1 70/70/1
f 70/70/1 210/210/1 211/211/1
f 70/70/1 211/211/1 71/71/1
f 71/71/1 211/211/1 212/212/1
f 71/71/1 212/212/1 72/72/1
f 72/72/1 212/212/1 213/213/1
f 72/72/1 213/213/1 73/73/1
f 73/73/1 213/213/1 214/214/1
f 73/73/1 214/214/1 74/74/1
f 74/74/1 214/214/1 215/215/1
f 74/74/1 215/215/1 75/75/1
f 75/75/1 215/215/1 216/216/1
f 75/75/1 216/216/1 76/76/1
f 76/76/1 216/216/1 217/217/1
f 76/76/1 217/217/1 77/77/1
f 77/77/1 217/217/1 218/218/1
f 77/77/1 218/218/1 78/78/1
f 78/78/1 218/218/1 219/219/1
f 78/78/1 219/219/1 79/79/1
f 79/79/1 219/219/1 220/220/1
f 79/79/1 220/220/1 80/80/1
f 80/80/1 220/220/1 221/221/1
f 80/80/1 221/221/1 81/81/1
f 81/81/1 221/221/1 222/222/1
f 81/81/1 222/222/1 82/82/1
f 82/82/1 222/222/1 223/223/1
f 82/82/1 223/223/1 83/83/1
f 83/83/1 223/223/1 224/224/1
f 83/83/1 224/224/1 84/84/1
f 84/84/1 224/224/1 225/225/1
f 84/84/1 225/225/1 85/85/1
f 85/85/1 225/225/1 226/226/1
f 85/85/1 226/226/1 86/86/1
f 86/86/1 226/226/1 227/227/1
f 86/86/1 227/227/1 87/87/1
f 87/87/1 227/227/1 228/228/1
f 87/87/1 228/228/1 88/88/1
f 88/88/1 228/228/1 229/229/1
f 88/88/1 229/229/1 89/89/1
f 89/89/1 229/229/1 230/230/1
f 89/89/1 230/230/1 90/90/1
f 90/90/1 230/230/1 231/231/1
f 90/90/1 231/231/1 91/91/1
f 91/91/1 231/231/1 232/232/1
f 91/91/1 232/232/1 92/92/1
f 92/92/1 232/232/1 233/233/1
f 92/92/1 233/233/1 93/93/1
f 93/93/1 233/233/1 234/234/1
f 93/93/1 234/234/1 94/94/1
f 94/94/1 234/234/1 235/235/1
f 94/94/1 235/235/1 95/95/1
f 95/95/1 235/235/1 236/236/1
f 95/95/1 236/236/1 96/96/1
f 96/96/1 236/236/1 237/237/1
f 96/96/1 237/237/1 97/97/1
f 97/97/1 237/237/1 238/238/1
f 97/97/1 238/238/1 98/98/1
f 98/98/1 238/238/1 239/239/1
f 98/98/1 239/239/1 99/99/1
f 99/99/1 239/239/1 240/240/1
f 99/99/1 240/240/1 100/100/1
f 100/100/1 240/240/1 241/241/1
f 100/100/1 241/241/1 101/101/1
f 101/101/1 241/241/1 242/242/1
f 101/101/1 242/242/1 102/102/1
f 102/102/1 242/242/1 243/243/1
f 102/102/1 243/243/1 103/103/1
f 103/103/1 243/243/1 244/244/1
f 103/103/1 244/244/1 104/104/1
f 104/104/1 244/244/1 245/245/1
f 104/104/1 245/245/1 105/105/1
f 105/105/1 245/245/1 246/246/1
f 105/105/1 246/246/1 106/106/1
f 106/106/1 246/246/1 247/247/1
f 106/106/1 247/247/1 107/107/1
f 107/107/1 247/247/1 248/248/1
f 107/107/1 248/248/1 108/108/1
f 108/108/1 248/248/1 249/249/1
f 108/108/1 249/249/1 109/109/1
f 109/109/1 249/249/1 250/250/1
f 109/109/1 250/250/1 110/110/1
f 110/110/1 250/250/1 251/251/1
f 110/110/1 251/251/1 111/111/1
f 111/111/1 251/251/1 252/252/1
f 111/111/1 252/252/1 112/112/1
f 112/112/1 252/252/1 253/253/1
f 112/112/1 253/253/1 113/113/1
f 113/113/1 253/253/1 254/254/1
f 113/113/1 254/254/1 114/114/1
f 114/114/1 254/254/1 255/255/1
f 114/114/1 255/255/1 115/115/1
f 115/115/1 255/255/1 256/256/1
f 115/115/1 256/256/1 116/116/1
f 116/116/1 256/256/1 257/257/1
f 116/116/1 257/257/1 117/117/1
f 117/117/1 257/257/1 258/258/1
f 117/117/1 258/258/1 118/118/1
f 118/118/1 258/258/1 259/259/1
f 118/118/1 259/259/1 119/119/1
f 119/119/1 259/259/1 260/260/1
f 119/119/1 260/260/1 120/120/1
f 120/120/1 260/260/1 261/261/1
f 120/120/1 261/261/1 121/121/1
f 121/121/1 261/261/1 262/262/1
f 121/121/1 262/262/1 122/122/1
f 122/122/1 262/262/1 263/263/1
f 122/122/1 263/263/1 123/123/1
f 123/123/1 263/263/1 264/264/1
f 123/123/1 264/264/1 124/124/1
f 124/124/1 264/264/1 265/265/1
f 124/124/1 265/265/1 125/125/1
f 125/125/1 265/265/1 266/266/1
f 125/125/1 266/266/1 126/126/1
f 126/126/1 266/266/1 267/267/1
f 126/126/1 267/267/1 127/127/1
f 127/127/1 267/267/1 268/268/1
f 127/127/1 268/268/1 128/128/1
f 128/128/1 268/268/1 269/269/1
f 128/128/1 269/269/1 129/129/1
f 129/129/1 269/269/1 270/270/1
f 129/129/1 270/270/1 130/130/1
f 130/130/1 270/270/1 271/271/1
f 130/130/1 271/271/1 131/131/1
f 131/131/1 271/271/1 272/272/1
f 131/131/1 272/272/1 132/132/1
f 132/132/1 272/272/1 273/273/1
f 132/132/1 273/273/1 133/133/1
f 133/133/1 273/273/1 274/274/1
f 133/133/1 274/274/1 134/134/1
f 134/134/1 274/274/1 275/275/1
f 134/134/1 275/275/1 135/135/1
f 135/135/1 275/275/1 276/276/1
f 135/135/1 276/276/1 136/136/1
f 136/136/1 276/276/1 277/277/1
f 136/136/1 277/277/1 137/137/1
f 137/137/1 277/277/1 278/278/1
f 137/137/1 278/278/1 138/138/1
f 138/138/1 278/278/1 279/279/1
f 138/138/1 279/279/1 139/139/1
f 139/139/1 279/279/1 280/280/1
f 139/139/1 280/280/1 140/140/1
usemtl wall
f 281//2 2//2 282//2
f 281//2 2//2 1//2
f 421//3 422//3 142//3
f 421//3 141//3 142//3
f 282//2 3//2 283//2
f 282//2 2//2 3//2
f 422//3 423//3 143//3
f 422//3 143//3 142//3
f 283//2 4//2 284//2
f 283//2 3//2 4//2
f 423//3 424//3 144//3
f 423//3 144//3 143//3
f 284//2 5//2 285//2
f 284//2 4//2 5//2
f 424//3 425//3 145//3
f 424//3 145//3 144//3
f 285//2 6//2 286//2
f 285//2 5//2 6//2
f 425//3 426//3 146//3
f 425//3 146//3 145//3
f 286//2 7//2 287//2
f 286//2 6//2 7//2
f 426//3 427//3 147//3
f 426//3 147//3 146//3
f 287//2 8//2 288//2
f 287//2 7//2 8//2
f 427//3 428//3 148//3
f 427//3 148//3 147//3
f 288//2 9//2 289//2
f 288//2 8//2 9//2
f 428//3 429//3 149//3
f 428//3 149//3 148//3
f 289//2 10//2 290//2
f 289//2 9//2 10//2
f 429//3 430//3 150//3
f 429//3 150//3 149//3
f 290//2 11//2 291//2
f 290//2 10//2 11//2
f 430//3 431//3 151//3
f 430//3 151//3 150//3
f 291//2 12//2 292//2
f 291//2 11//2 12//2
f 431//3 432//3 152//3
f 431//3 152//3 151//3
f 292//2 13//2 293//2
f 292//2 12//2 13//2
f 432//3 433//3 153//3
f 432//3 153//3 152//3
f 293//2 14//2 294//2
f 293//2 13//2 14//2
f 433//3 434//3 154//3
f 433//3 154//3 153//3
f 294//2 15//2 295//2
f 294//2 14//2 15//2
f 434//3 435//3 155//3
f 434//3 155//3 154//3
f 295//2 16//2 296//2
f 295//2 15//2 16//2
f 435//3 436//3 156//3
f 435//3 156//3 155//3
f 296//2 17//2 297//2
f 296//2 16//2 17//2
f 436//3 437//3 157//3
f 436//3 157//3 156//3
f 297//2 18//2 298//2
f 297//2 17//2 18//2
f 437//3 438//3 158//3
f 437//3 158//3 157//3
f 298//2 19//2 299//2
f 298//2 18//2 19//2
f 438//3 439//3 159//3
f 438//3 159//3 158//3
f 299//2 20//2 300//2
f 299//2 19//2 20//2
f 439//3 440//3 160//3
f 439//3 160//3 159//3
f 300//2 21//2 301//2
f 300//2 20//2 21//2
f 440//3 441//3 161//3
f 440//3 161//3 160//3
f 301//2 22//2 302//2
f 301//2 21//2 22//2
f 441//3 442//3 162//3
f 441//3 162//3 161//3
f 302//2 23//2 303//2
f 302//2 22//2 23//2
f 442//3 443//3 163//3
f 442//3 163//3 162//3
f 303//2 24//2 304//2
f 303//2 23//2 24//2
f 443//3 444//3 164//3
f 443//3 164//3 163//3
f 304//2 25//2 305//2
f 304//2 24//2 25//2
f 444//3 445//3 165//3
f 444//3 165//3 164//3
f 305//2 26//2 306//2
f 305//2 25//2 26//2
f 445//3 446//3 166//3
f 445//3 166//3 165//3
f 306//2 27//2 307//2
f 306//2 26//2 27//2
f 446//3 447//3 167//3
f 446//3 167//3 166//3
f 307//2 28//2 308//2
f 307//2 27//2 28//2
f 447//3 448//3 168//3
f 447//3 168//3 167//3
f 308//2 29//2 309//2
f 308//2 28//2 29//2
f 448//3 449//3 169//3
f 448//3 169//3 168//3
f 309//2 30//2 310//2
f 309//2 29//2 30//2
f 449//3 450//3 170//3
f 449//3 170//3 169//3
f 310//2 31//2 311//2
f 310//2 30//2 31//2
f 450//3 451//3 171//3
f 450//3 171//3 170//3
f 311//2 32//2 312//2
f 311//2 31//2 32//2
f 451//3 452//3 172//3
f 451//3 172//3 171//3
f 312//2 33//2 313//2
f 312//2 32//2 33//2
f 452//3 453//3 173//3
f 452//3 173//3 172//3
f 313//2 34//2 314//2
f 313//2 33//2 34//2
f 453//3 454//3 174//3
f 453//3 174//3 173//3
f 314//2 35//2 315//2
f 314//2 34//2 35//2
f 454//3 455//3 175//3
f 454//3 175//3 174//3
f 315//2 36//2 316//2
f 315//2 35//2 36//2
f 455//3 456//3 176//3
f 455//3 176//3 175//3
f 316//2 37//2 317//2
f 316//2 36//2 37//2
f 456//3 457//3 177//3
f 456//3 177//3 176//3
f 317//2 38//2 318//2
f 317//2 37//2 38//2
f 457//3 458//3 178//3
f 457//3 178//3 177//3
f 318//2 39//2 319//2
f 318//2 38//2 39//2
f 458//3 459//3 179//3
f 458//3 179//3 178//3
f 319//2 40//2 320//2
f 319//2 39//2 40//2
f 459//3 460//3 180//3
f 459//3 180//3 179//3
f 320//2 41//2 321//2
f 320//2 40//2 41//2
f 460//3 461//3 181//3
f 460//3 181//3 180//3
f 321//2 42//2 322//2
f 321//2 41//2 42//2
f 461//3 462//3 182//3
f 461//3 182//3 181//3
f 322//2 43//2 323//2
f 322//2 42//2 43//2
f 462//3 463//3 183//3
f 462//3 183//3 182//3
f 323//2 44//2 324//2
f 323//2 43//2 44//2
f 463//3 464//3 184//3
f 463//3 184//3 183//3
f 324//2 45//2 325//2
f 324//2 44//2 45//2
f 464//3 465//3 185//3
f 464//3 185//3 184//3
f 325//2 46//2 326//2
f 325//2 45//2 46//2
f 465//3 466//3 186//3
f 465//3 186//3 185//3
f 326//2 47//2 327//2
f 326//2 46//2 47//2
f 466//3 467//3 187//3
f 466//3 187//3 186//3
f 327//2 48//2 328//2
f 327//2 47//2 48//2
f 467//3 468//3 188//3
f 467//3 188//3 187//3
f 328//2 49//2 329//2
f 328//2 48//2 49//2
f 468//3 469//3 189//3
f 468//3 189//3 188//3
f 329//2 50//2 330//2
f 329//2 49//2 50//2
f 469//3 470//3 190//3
f 469//3 190//3 189//3
f 330//2 51//2 331//2
f 330//2 50//2 51//2
f 470//3 471//3 191//3
f 470//3 191//3 190//3
f 331//2 52//2 332//2
f 331//2 51//2 52//2
f 471//3 472//3 192//3
f 471//3 192//3 191//3
f 332//2 53//2 333//2
f 332//2 52//2 53//2
f 472//3 473//3 193//3
f 472//3 193//3 192//3
f 333//2 54//2 334//2
f 333//2 53//2 54//2
f 473//3 474//3 194//3
f 473//3 194//3 193//3
f 334//2 55//2 335//2
f 334//2 54//2 55//2
f 474//3 475//3 195//3
f 474//3 195//3 194//3
f 335//2 56//2 336//2
f 335//2 55//2 56//2
f 475//3 476//3 196//3
f 475//3 196//3 195//3
f 336//2 57//2 337//2
f 336//2 56//2 57//2
f 476//3 477//3 197//3
f 476//3 197//3 196//3
f 337//2 58//2 338//2
f 337//2 57//2 58//2
f 477//3 478//3 198//3
f 477//3 198//3 197//3
f 338//2 59//2 339//2
f 338//2 58//2 59//2
f 478//3 479//3 199//3
f 478//3 199//3 198//3
f 339//2 60//2 340//2
f 339//2 59//2 60//2
f 479//3 480//3 200//3
f 479//3 200//3 199//3
f 340//2 61//2 341//2
f 340//2 60//2 61//2
f 480//3 481//3 201//3
f 480//3 201//3 200//3
f 341//2 62//2 342//2
f 341//2 61//2 62//2
f 481//3 482//3 202//3
f 481//3 202//3 201//3
f 342//2 63//2 343//2
f 342//2 62//2 63//2
f 482//3 483//3 203//3
f 482//3 203//3 202//3
f 343//2 64//2 344//2
f 343//2 63//2 64//2
f 483//3 484//3 204//3
f 483//3 204//3 203//3
f 344//2 65//2 345//2
f 344//2 64//2 65//2
f 484//3 485//3 205//3
f 484//3 205//3 204//3
f 345//2 66//2 346//2
f 345//2 65//2 66//2
f 485//3 486//3 206//3
f 485//3 206//3 205//3
f 346//2 67//2 347//2
f 346//2 66//2 67//2
f 486//3 487//3 207//3
f 486//3 207//3 206//3
f 347//2 68//2 348//2
f 347//2 67//2 68//2
f 487//3 488//3 208//3
f 487//3 208//3 207//3
f 348//2 69//2 349//2
f 348//2 68//2 69//2
f 488//3 489//3 209//3
f 488//3 209//3 208//3
f 349//2 70//2 350//2
f 349//2 69//2 70//2
f 489//3 490//3 210//3
f 489//3 210//3 209//3
f 350//2 71//2 351//2
f 350//2 70//2 71//2
f 490//3 491//3 211//3
f 490//3 211//3 210//3
f 351//2 72//2 352//2
f 351//2 71//2 72//2
f 491//3 492//3 212//3
f 491//3 212//3 211//3
f 352//2 73//2 353//2
f 352//2 72//2 73//2
f 492//3 493//3 213//3
f 492//3 213//3 212//3
f 353//2 74//2 354//2
f 353//2 73//2 74//2
f 493//3 494//3 214//3
f 493//3 214//3 213//3
f 354//2 75//2 355//2
f 354//2 74//2 75//2
f 494//3 495//3 215//3
f 494//3 215//3 214//3
f 355//2 76//2 356//2
f 355//2 75//2 76//2
f 495//3 496//3 216//3
f 495//3 216//3 215//3
f 356//2 77//2 357//2
f 356//2 76//2 77//2
f 496//3 497//3 217//3
f 496//3 217//3 216//3
f 357//2 78//2 358//2
f 357//2 77//2 78//2
f 497//3 498//3 218//3
f 497//3 218//3 217//3
f 358//2 79//2 359//2
f 358//2 78//2 79//2
f 498//3 499//3 219//3
f 498//3 219//3 218//3
f 359//2 80//2 360//2
f 359//2 79//2 80//2
f 499//3 500//3 220//3
f 499//3 220//3 219//3
f 360//2 81//2 361//2
f 360//2 80//2 81//2
f 500//3 501//3 221//3
f 500//3 221//3 220//3
f 361//2 82//2 362//2
f 361//2 81//2 82//2
f 501//3 502//3 222//3
f 501//3 222//3 221//3
f 362//2 83//2 363//2
f 362//2 82//2 83//2
f 502//3 503//3 223//3
f 502//3 223//3 222//3
f 363//2 84//2 364//2
f 363//2 83//2 84//2
f 503//3 504//3 224//3
f 503//3 224//3 223//3
f 364//2 85//2 365//2
f 364//2 84//2 85//2
f 504//3 505//3 225//3
f 504//3 225//3 224//3
f 365//2 86//2 366//2
f 365//2 85//2 86//2
f 505//3 506//3 226//3
f 505//3 226//3 225//3
f 366//2 87//2 367//2
f 366//2 86//2 87//2
f 506//3 507//3 227//3
f 506//3 227//3 226//3
f 367//2 88//2 368//2
f 367//2 87//2 88//2
f 507//3 508//3 228//3
f 507//3 228//3 227//3
f 368//2 89//2 369//2
f 368//2 88//2 89//2
f 508//3 509//3 229//3
f 508//3 229//3 228//3
f 369//2 90//2 370//2
f 369//2 89//2 90//2
f 509//3 510//3 230//3
f 509//3 230//3 229//3
f 370//2 91//2 371//2
f 370//2 90//2 91//2
f 510//3 511//3 231//3
f 510//3 231//3 230//3
f 371//2 92//2 372//2
f 371//2 91//2 92//2
f 511//3 512//3 232//3
f 511//3 232//3 231//3
f 372//2 93//2 373//2
f 372//2 92//2 93//2
f 512//3 513//3 233//3
f 512//3 233//3 232//3
f 373//2 94//2 374//2
f 373//2 93//2 94//2
f 513//3 514//3 234//3
f 513//3 234//3 233//3
f 374//2 95//2 375//2
f 374//2 94//2 95//2
f 514//3 515//3 235//3
f 514//3 235//3 234//3
f 375//2 96//2 376//2
f 375//2 95//2 96//2
f 515//3 516//3 236//3
f 515//3 236//3 235//3
f 376//2 97//2 377//2
f 376//2 96//2 97//2
f 516//3 517//3 237//3
f 516//3 237//3 236//3
f 377//2 98//2 378//2
f 377//2 97//2 98//2
f 517//3 518//3 238//3
f 517//3 238//3 237//3
f 378//2 99//2 379//2
f 378//2 98//2 99//2
f 518//3 519//3 239//3
f 518//3 239//3 238//3
f 379//2 100//2 380//2
f 379//2 99//2 100//2
f 519//3 520//3 240//3
f 519//3 240//3 239//3
f 380//2 101//2 381//2
f 380//2 100//2 101//2
f 520//3 521//3 241//3
f 520//3 241//3 240//3
f 381//2 102//2 382//2
f 381//2 101//2 102//2
f 521//3 522//3 242//3
f 521//3 242//3 241//3
f 382//2 103//2 383//2
f 382//2 102//2 103//2
f 522//3 523//3 243//3
f 522//3 243//3 242//3
f 383//2 104//2 384//2
f 383//2 103//2 104//2
f 523//3 524//3 244//3
f 523//3 244//3 243//3
f 384//2 105//2 385//2
f 384//2 104//2 105//2
f 524//3 525//3 245//3
f 524//3 245//3 244//3
f 385//2 106//2 386//2
f 385//2 105//2 106//2
f 525//3 526//3 246//3
f 525//3 246//3 245//3
f 386//2 107//2 387//2
f 386//2 106//2 107//2
f 526//3 527//3 247//3
f 526//3 247//3 246//3
f 387//2 108//2 388//2
f 387//2 107//2 108//2
f 527//3 528//3 248//3
f 527//3 248//3 247//3
f 388//2 109//2 389//2
f 388//2 108//2 109//2
f 528//3 529//3 249//3
f 528//3 249//3 248//3
f 389//2 110//2 390//2
f 389//2 109//2 110//2
f 529//3 530//3 250//3
f 529//3 250//3 249//3
f 390//2 111//2 391//2
f 390//2 110//2 111//2
f 530//3 531//3 251//3
f 530//3 251//3 250//3
f 391//2 112//2 392//2
f 391//2 111//2 112//2
f 531//3 532//3 252//3
f 531//3 252//3 251//3
f 392//2 113//2 393//2
f 392//2 112//2 113//2
f 532//3 533//3 253//3
f 532//3 253//3 252//3
f 393//2 114//2 394//2
f 393//2 113//2 114//2
f 533//3 534//3 254//3
f 533//3 254//3 253//3
f 394//2 115//2 395//2
f 394//2 114//2 115//2
f 534//3 535//3 255//3
f 534//3 255//3 254//3
f 395//2 116//2 396//2
f 395//2 115//2 116//2
f 535//3 536//3 256//3
f 535//3 256//3 255//3
f 396//2 117//2 397//2
f 396//2 116//2 117//2
f 536//3 537//3 257//3
f 536//3 257//3 256//3
f 397//2 118//2 398//2
f 397//2 117//2 118//2
f 537//3 538//3 258//3
f 537//3 258//3 257//3
f 398//2 119//2 399//2
f 398//2 118//2 119//2
f 538//3 539//3 259//3
f 538//3 259//3 258//3
f 399//2 120//2 400//2
f 399//2 119//2 120//2
f 539//3 540//3 260//3
f 539//3 260//3 259//3
f 400//2 121//2 401//2
f 400//2 120//2 121//2
f 540//3 541//3 261//3
f 540//3 261//3 260//3
f 401//2 122//2 402//2
f 401//2 121//2 122//2
f 541//3 542//3 262//3
f 541//3 262//3 261//3
f 402//2 123//2 403//2
f 402//2 122//2 123//2
f 542//3 543//3 263//3
f 542//3 263//3 262//3
f 403//2 124//2 404//2
f 403//2 123//2 124//2
f 543//3 544//3 264//3
f 543//3 264//3 263//3
f 404//2 125//2 405//2
f 404//2 124//2 125//2
f 544//3 545//3 265//3
f 544//3 265//3 264//3
f 405//2 126//2 406//2
f 405//2 125//2 126//2
f 545//3 546//3 266//3
f 545//3 266//3 265//3
f 406//2 127//2 407//2
f 406//2 126//2 127//2
f 546//3 547//3 267//3
f 546//3 267//3 266//3
f 407//2 128//2 408//2
f 407//2 127//2 128//2
f 547//3 548//3 268//3
f 547//3 268//3 267//3
f 408//2 129//2 409//2
f 408//2 128//2 129//2
f 548//3 549//3 269//3
f 548//3 269//3 268//3
f 409//2 130//2 410//2
f 409//2 129//2 130//2
f 549//3 550//3 270//3
f 549//3 270//3 269//3
f 410//2 131//2 411//2
f 410//2 130//2 131//2
f 550//3 551//3 271//3
f 550//3 271//3 270//3
f 411//2 132//2 412//2
f 411//2 131//2 132//2
f 551//3 552//3 272//3
f 551//3 272//3 271//3
f 412//2 133//2 413//2
f 412//2 132//2 133//2
f 552//3 553//3 273//3
f 552//3 273//3 272//3
f 413//2 134//2 414//2
f 413//2 133//2 134//2
f 553//3 554//3 274//3
f 553//3 274//3 273//3
f 414//2 135//2 415//2
f 414//2 134//2 135//2
f 554//3 555//3 275//3
f 554//3 275//3 274//3
f 415//2 136//2 416//2
f 415//2 135//2 136//2
f 555//3 556//3 276//3
f 555//3 276//3 275//3
f 416//2 137//2 417//2
f 416//2 136//2 137//2
f 556//3 557//3 277//3
f 556//3 277//3 276//3
f 417//2 138//2 418//2
f 417//2 137//2 138//2
f 557//3 558//3 278//3
f 557//3 278//3 277//3
f 418//2 139//2 419//2
f 418//2 138//2 139//2
f 558//3 559//3 279//3
f 558//3 279//3 278//3
f 419//2 420//2 140//2
f 419//2 139//2 140//2
f 559//3 280//3 560//3
f 559//3 280//3 279//3
